<?xml version="1.0" encoding="UTF-8"?>
<svg version="1.1" xmlns="http://www.w3.org/2000/svg" width="225" height="225">
<path d="M0 0 C74.25 0 148.5 0 225 0 C225 74.25 225 148.5 225 225 C150.75 225 76.5 225 0 225 C0 150.75 0 76.5 0 0 Z " fill="#FDFDFD" transform="translate(0,0)"/>
<path d="M0 0 C0.67296112 0.00314209 1.34592224 0.00628418 2.03927612 0.00952148 C32.49917396 0.31135828 58.79533368 11.68713015 80.0859375 33.3984375 C85.10663841 38.78099073 89.41682434 44.29003073 93.25 50.5625 C93.79011719 51.34882812 94.33023438 52.13515625 94.88671875 52.9453125 C99.35214599 59.82909472 102.01610413 66.99914554 104.625 74.75 C104.97095215 75.7716626 105.3169043 76.7933252 105.67333984 77.84594727 C113.74890211 102.77019765 109.97917535 131.0805558 99.25 154.5625 C88.15960149 176.14359991 71.71303852 192.3751338 50.25 203.5625 C49.08339844 204.17867187 47.91679687 204.79484375 46.71484375 205.4296875 C40.60360723 208.47478124 37.12603668 210.10644443 30.25 208.5625 C28.11434105 206.42684105 29.11280384 201.52418567 29.109375 198.55859375 C29.09103372 196.68423277 29.07146221 194.8098835 29.05078125 192.93554688 C29.02190563 189.97530602 29.00000262 187.01581035 28.99951172 184.05541992 C28.99615855 181.20163592 28.96148215 178.34957633 28.921875 175.49609375 C28.93247955 174.18468666 28.93247955 174.18468666 28.94329834 172.8467865 C28.83274374 167.20948513 27.68997677 163.80377126 24.32012939 159.25624084 C23.25 157.5625 23.25 157.5625 23.25 154.5625 C24.25417969 154.42714844 25.25835937 154.29179687 26.29296875 154.15234375 C40.68000332 151.97934811 53.49849337 146.55492969 62.4375 134.5625 C70.7034087 121.13316843 71.37061281 103.87999509 68.51953125 88.6640625 C66.94344127 83.54301678 66.94344127 83.54301678 63.99853516 79.12548828 C59.28853335 73.59403278 59.69359706 68.45923404 60 61.4375 C60.06144371 59.31001169 60.11888084 57.18240305 60.171875 55.0546875 C60.20893555 54.11995605 60.24599609 53.18522461 60.28417969 52.22216797 C60.24974413 49.54258987 59.85959017 47.16652298 59.25 44.5625 C49.86544296 45.68040962 40.90029568 46.97789708 33.25 52.875 C30.01318411 54.69570894 29.67483324 54.70345914 26.25390625 54.17578125 C18.7705505 53.27889203 11.28010428 53.41338194 3.75463867 53.43212891 C1.18988148 53.43749502 -1.3747012 53.43215452 -3.93945312 53.42578125 C-5.59635455 53.42644203 -7.25325586 53.42772318 -8.91015625 53.4296875 C-9.66353775 53.42766327 -10.41691925 53.42563904 -11.19313049 53.42355347 C-15.77625106 53.44340246 -20.17389238 53.80066583 -24.70559692 54.50291443 C-28.50385892 54.61361746 -31.38691215 52.64320041 -34.5625 50.75 C-41.19118387 47.09322843 -47.11725893 45.14073796 -54.75 44.5625 C-57.04132752 52.04691344 -56.81859403 58.84440535 -56.40820312 66.60546875 C-56.23158969 73.18997972 -57.15368324 75.61055582 -61.75 80.5625 C-65.3745029 87.54798734 -65.2555738 95.05390795 -65.1875 102.75 C-65.17920166 103.94802246 -65.17090332 105.14604492 -65.16235352 106.38037109 C-64.88648219 120.8258184 -62.21695452 131.19380801 -51.73046875 141.55859375 C-46.09863711 146.73815593 -40.81924311 149.51477233 -33.33984375 151.0234375 C-28.43963186 152.04339111 -23.60069422 153.33135934 -18.75 154.5625 C-20.10193927 158.00099395 -21.50599449 161.39869661 -23.0625 164.75 C-23.45050781 165.60980469 -23.83851562 166.46960938 -24.23828125 167.35546875 C-26.16246347 170.16467535 -27.48566972 170.68202067 -30.75 171.5625 C-36.0613801 172.33994294 -41.34984481 172.71442633 -46.28125 170.34765625 C-51.41644827 166.50529839 -55.47640461 161.6002844 -59.69921875 156.80859375 C-62.80459493 153.40746746 -65.38170433 150.78916856 -70.1171875 150.3359375 C-72.34640356 150.31510371 -74.52862596 150.38479008 -76.75 150.5625 C-75.27240738 154.07571224 -73.30175408 156.07578498 -70.5 158.625 C-66.2818799 162.72144356 -63.72958435 166.83474503 -61.078125 172.04296875 C-58.10788695 177.67768505 -54.76937337 181.1291363 -48.75 183.5625 C-45.87451542 184.4018606 -43.19197383 184.73754178 -40.203125 184.87890625 C-39.35878906 184.92080078 -38.51445313 184.96269531 -37.64453125 185.00585938 C-36.77183594 185.04517578 -35.89914063 185.08449219 -35 185.125 C-34.11183594 185.16818359 -33.22367187 185.21136719 -32.30859375 185.25585938 C-30.12254037 185.36163615 -27.93637911 185.46372546 -25.75 185.5625 C-25.66318524 189.18734999 -25.60967279 192.81193443 -25.5625 196.4375 C-25.53736328 197.47003906 -25.51222656 198.50257813 -25.48632812 199.56640625 C-25.47666016 200.55253906 -25.46699219 201.53867188 -25.45703125 202.5546875 C-25.4413208 203.46589355 -25.42561035 204.37709961 -25.40942383 205.31591797 C-25.52181396 206.05729004 -25.6342041 206.79866211 -25.75 207.5625 C-29.1601646 209.83594306 -30.64368607 209.69396551 -34.59179688 209.07470703 C-38.16516053 208.2266395 -41.26441138 206.70670175 -44.5 205 C-45.19391846 204.64067383 -45.88783691 204.28134766 -46.6027832 203.91113281 C-67.53584324 192.8696247 -81.79495079 177.78800453 -93.75 157.5625 C-94.24757813 156.82128906 -94.74515625 156.08007812 -95.2578125 155.31640625 C-97.50302833 151.17274876 -98.85451767 146.78364582 -100.3125 142.3125 C-100.76786133 140.95705078 -100.76786133 140.95705078 -101.23242188 139.57421875 C-102.11087305 136.91398536 -102.9451202 134.24585717 -103.75 131.5625 C-103.96333984 130.85359619 -104.17667969 130.14469238 -104.39648438 129.41430664 C-106.2774145 122.22682769 -106.14678009 114.88411036 -106.125 107.5 C-106.12445618 106.8093042 -106.12391235 106.1186084 -106.12335205 105.40698242 C-106.08533617 94.92189724 -105.39896881 85.48633106 -101.75 75.5625 C-101.32589844 74.32371094 -100.90179688 73.08492188 -100.46484375 71.80859375 C-95.07827048 56.78926594 -86.43739058 44.28256789 -75.75 32.5625 C-74.86054687 31.56669922 -74.86054687 31.56669922 -73.953125 30.55078125 C-54.53890864 9.93519011 -27.95955009 -0.14606432 0 0 Z " fill="#020202" transform="translate(110.75,7.4375)"/>
</svg>
